<?xml version="1.0" encoding="UTF-8" standalone="no"?>
<!-- Generator: Adobe Illustrator 19.0.0, SVG Export Plug-In . SVG Version: 6.00 Build 0)  -->

<svg
   xmlns:dc="http://purl.org/dc/elements/1.1/"
   xmlns:cc="http://creativecommons.org/ns#"
   xmlns:rdf="http://www.w3.org/1999/02/22-rdf-syntax-ns#"
   xmlns:svg="http://www.w3.org/2000/svg"
   xmlns="http://www.w3.org/2000/svg"
   xmlns:sodipodi="http://sodipodi.sourceforge.net/DTD/sodipodi-0.dtd"
   xmlns:inkscape="http://www.inkscape.org/namespaces/inkscape"
   version="1.1"
   id="Capa_1"
   x="0px"
   y="0px"
   viewBox="0 0 12 10"
   xml:space="preserve"
   sodipodi:docname="grass.svg"
   width="12"
   height="10"
   inkscape:version="0.92.3 (2405546, 2018-03-11)"><metadata
   id="metadata65"><rdf:RDF><cc:Work
       rdf:about=""><dc:format>image/svg+xml</dc:format><dc:type
         rdf:resource="http://purl.org/dc/dcmitype/StillImage" /><dc:title></dc:title></cc:Work></rdf:RDF></metadata><defs
   id="defs63" /><sodipodi:namedview
   pagecolor="#ffffff"
   bordercolor="#666666"
   borderopacity="1"
   objecttolerance="10"
   gridtolerance="10"
   guidetolerance="10"
   inkscape:pageopacity="0"
   inkscape:pageshadow="2"
   inkscape:window-width="1920"
   inkscape:window-height="1017"
   id="namedview61"
   showgrid="false"
   fit-margin-top="0"
   fit-margin-left="0"
   fit-margin-right="0"
   fit-margin-bottom="0"
   inkscape:zoom="20.85965"
   inkscape:cx="6.5959897"
   inkscape:cy="-3.9730439"
   inkscape:window-x="-8"
   inkscape:window-y="-8"
   inkscape:window-maximized="1"
   inkscape:current-layer="Capa_1" />
<rect
   style="opacity:1;fill:#fdfdfd;fill-opacity:1;fill-rule:evenodd;stroke:none;stroke-width:1.06745672;stroke-linecap:square;stroke-linejoin:miter;stroke-miterlimit:4;stroke-dasharray:1.06745666, 3.20237;stroke-dashoffset:0;stroke-opacity:1;paint-order:fill markers stroke"
   id="rect843"
   width="13.135407"
   height="10.642556"
   x="-0.23969722"
   y="-0.067282997" /><path
   style="fill:#8dce55;stroke-width:0.01547443"
   d="M 8.1730607,1.987857 C 7.0164818,2.9130024 6.2891772,4.313728 5.8793507,5.5323176 6.3350893,6.8874104 6.4398689,8.0172523 6.4398689,8.0172523 h 0.7602136 c 0,-3.0013754 0.774084,-4.9848608 1.2154946,-5.8719275 C 8.4828023,2.0102122 8.2962899,1.8892859 8.1730607,1.987857 Z"
   id="path2"
   inkscape:connector-curvature="0" />
<path
   style="fill:#6dc82a;stroke-width:0.01547443"
   d="M 6.0573412,5.0449959 C 5.9924386,5.2095641 5.9330816,5.372522 5.8793507,5.5323029 6.3350893,6.8873954 6.4398852,8.0172373 6.4398852,8.0172373 H 6.7941487 C 6.7941323,8.0171555 6.6631665,6.6051804 6.0573412,5.0449959 Z"
   id="path4"
   inkscape:connector-curvature="0" />
<path
   style="fill:#8dce55;stroke-width:0.01547443"
   d="m 7.156509,8.0172523 c 0,0 0.2807743,-3.0289132 2.0962389,-4.4810838 0.09158,-0.073259 0.2302005,0.016616 0.1802313,0.1170321 C 9.1049351,4.312469 8.5296304,5.7866143 8.5296304,8.0172523 Z"
   id="path6"
   inkscape:connector-curvature="0" />
<path
   style="fill:#6dc82a;stroke-width:0.01547443"
   d="M 9.4329633,3.6532006 C 9.482932,3.5527849 9.3443112,3.4629099 9.2527315,3.5361685 7.4372833,4.9883391 7.156509,8.0172523 7.156509,8.0172523 h 0.3959234 c 0,0 0.2516601,-2.7144021 1.8187035,-4.2359371 0.021379,-0.045633 0.042069,-0.088396 0.061827,-0.1281146 z"
   id="path8"
   inkscape:connector-curvature="0" />
<path
   style="fill:#8dce55;stroke-width:0.01547443"
   d="m 8.581644,8.0172523 c 0,0 0.186447,-2.0113017 1.3919642,-2.9755943 C 10.034421,4.993024 10.126475,5.052697 10.093288,5.119367 9.8754534,5.5571471 9.4934329,6.5360212 9.4934329,8.0172523 Z"
   id="path10"
   inkscape:connector-curvature="0" />
<path
   style="fill:#6dc82a;stroke-width:0.01547443"
   d="M 10.093288,5.1193671 C 10.126475,5.052682 10.034422,4.9930093 9.9736082,5.041658 8.768091,6.0059506 8.581644,8.0172523 8.581644,8.0172523 h 0.3370241 c 0,0 0.1520821,-1.6392701 1.0687123,-2.6674956 0.037717,-0.088484 0.073636,-0.1655198 0.1059076,-0.2303896 z"
   id="path12"
   inkscape:connector-curvature="0" />
<path
   style="fill:#8dce55;stroke-width:0.01547443"
   d="m 6.4735792,8.0172523 c 0,0 -0.3777842,-4.075468 -2.8205177,-6.0293953 C 3.5298486,1.889301 3.34332,2.010212 3.4105612,2.1453248 3.8519556,3.0323769 4.6260397,5.0158769 4.6260397,8.0172523 Z"
   id="path14"
   inkscape:connector-curvature="0" />
<path
   style="fill:#6dc82a;stroke-width:0.01547443"
   d="M 3.7555018,2.0721395 C 3.7217422,2.04365 3.687639,2.0155119 3.6530615,1.9878424 3.5298486,1.8892859 3.34332,2.0101976 3.4105612,2.1453101 3.8519556,3.0323622 4.6260397,5.0158623 4.6260397,8.0172373 h 0.3580912 c 0,-3.001375 -0.7740841,-4.9848604 -1.2154786,-5.8719272 -0.012627,-0.025327 -0.016307,-0.050171 -0.013151,-0.073171 z"
   id="path16"
   inkscape:connector-curvature="0" />
<path
   style="fill:#8dce55;stroke-width:0.01547443"
   d="m 4.6696131,8.0172523 c 0,0 -0.2807743,-3.0289132 -2.0962389,-4.4810838 -0.09158,-0.073259 -0.2302003,0.016616 -0.1802314,0.1170321 0.3280443,0.6592684 0.9033487,2.1334137 0.9033487,4.3640517 z"
   id="path18"
   inkscape:connector-curvature="0" />
<path
   style="fill:#6dc82a;stroke-width:0.01547443"
   d="M 2.5733742,3.5361685 C 2.4817946,3.4629099 2.3431739,3.5527849 2.3931428,3.6532006 2.7211871,4.312469 3.2964915,5.7866143 3.2964915,8.0172523 h 0.3538712 c 0,-2.1700137 -0.5444235,-3.6239851 -0.8760499,-4.3083758 C 2.7095251,3.6491892 2.6425782,3.5915223 2.5733742,3.5361685 Z"
   id="path20"
   inkscape:connector-curvature="0" />
<path
   style="fill:#8dce55;stroke-width:0.01547443"
   d="m 3.2444781,8.0172523 c 0,0 -0.1864469,-2.0113017 -1.3919641,-2.9755943 -0.060813,-0.048634 -0.1528672,0.011039 -0.11968,0.077709 0.2178348,0.43778 0.5998555,1.4166541 0.5998555,2.8978852 z"
   id="path22"
   inkscape:connector-curvature="0" />
<g
   id="g28"
   transform="matrix(0.01635642,0,0,0.01464,1.7258171,1.293277)">
	<path
   style="fill:#6dc82a"
   d="m 7.746,256.037 c -3.718,-3.322 -9.346,0.754 -7.317,5.308 13.318,29.903 36.674,96.766 36.674,197.943 h 20.862 c 0,-85.65 -16.736,-146.702 -29.953,-181.566 -6.171,-7.801 -12.903,-15.104 -20.266,-21.685 z"
   id="path24"
   inkscape:connector-curvature="0" />
	<path
   style="fill:#6dc82a"
   d="M 497.892,467.014 H 14.959 c -4.267,0 -7.727,-3.459 -7.727,-7.727 0,-4.268 3.459,-7.727 7.727,-7.727 h 482.932 c 4.267,0 7.727,3.459 7.727,7.727 0,4.268 -3.459,7.727 -7.726,7.727 z"
   id="path26"
   inkscape:connector-curvature="0" />
</g>
<g
   id="g30"
   transform="translate(-7.6704838,-4.3459157)">
</g>
<g
   id="g32"
   transform="translate(-7.6704838,-4.3459157)">
</g>
<g
   id="g34"
   transform="translate(-7.6704838,-4.3459157)">
</g>
<g
   id="g36"
   transform="translate(-7.6704838,-4.3459157)">
</g>
<g
   id="g38"
   transform="translate(-7.6704838,-4.3459157)">
</g>
<g
   id="g40"
   transform="translate(-7.6704838,-4.3459157)">
</g>
<g
   id="g42"
   transform="translate(-7.6704838,-4.3459157)">
</g>
<g
   id="g44"
   transform="translate(-7.6704838,-4.3459157)">
</g>
<g
   id="g46"
   transform="translate(-7.6704838,-4.3459157)">
</g>
<g
   id="g48"
   transform="translate(-7.6704838,-4.3459157)">
</g>
<g
   id="g50"
   transform="translate(-7.6704838,-4.3459157)">
</g>
<g
   id="g52"
   transform="translate(-7.6704838,-4.3459157)">
</g>
<g
   id="g54"
   transform="translate(-7.6704838,-4.3459157)">
</g>
<g
   id="g56"
   transform="translate(-7.6704838,-4.3459157)">
</g>
<g
   id="g58"
   transform="translate(-7.6704838,-4.3459157)">
</g>
</svg>